<svg width="26" height="26" viewBox="0 0 26 26" fill="none" xmlns="http://www.w3.org/2000/svg">
<path d="M17.7 12.4H14.2V8.9C14.2 8.4 13.8 8 13.3 8C12.8 8 12.4 8.4 12.4 8.9V12.4H8.9C8.4 12.4 8 12.8 8 13.3C8 13.8 8.4 14.2 8.9 14.2H12.4V17.7C12.4 18.2 12.8 18.6 13.3 18.6C13.8 18.6 14.2 18.2 14.2 17.7V14.2H17.7C18.2 14.2 18.6 13.8 18.6 13.3C18.6 12.8 18.2 12.4 17.7 12.4ZM13 24.2C6.8 24.2 1.8 19.2 1.8 13C1.8 6.8 6.8 1.8 13 1.8C19.2 1.8 24.2 6.8 24.2 13C24.2 16 23 18.8 20.9 20.9C18.8 23 16 24.2 13 24.2ZM13 0C5.8 0 0 5.8 0 13C0 20.2 5.8 26 13 26C20.2 26 26 20.2 26 13C26 5.8 20.2 0 13 0Z" fill="#2B2B2B"/>
</svg>
