<svg width="26" height="26" viewBox="0 0 26 26" fill="none" xmlns="http://www.w3.org/2000/svg">
<path d="M13.3 19.2C13.8 19.2 14.2 18.8 14.2 18.3C14.2 17.8 13.8 17.4 13.3 17.4C12.8 17.4 12.4 17.8 12.4 18.3C12.4 18.8 12.8 19.2 13.3 19.2ZM13.3 5.3C12.8 5.3 12.4 5.7 12.4 6.2V14.9C12.4 15.4 12.8 15.8 13.3 15.8C13.8 15.8 14.2 15.4 14.2 14.9V6.2C14.2 5.7 13.8 5.3 13.3 5.3ZM13 24.1C6.8 24.1 1.9 19.1 1.9 13C1.9 6.9 6.8 1.9 13 1.9C19.2 1.9 24.1 6.9 24.1 13C24.1 19.1 19.2 24.1 13 24.1ZM13 0C5.8 0 0 5.8 0 13C0 20.2 5.8 26 13 26C20.2 26 26 20.2 26 13C26 5.8 20.2 0 13 0Z" fill="#2B2B2B"/>
</svg>
