<svg width="26" height="20" viewBox="0 0 26 20" fill="none" xmlns="http://www.w3.org/2000/svg">
<path d="M19.3 17.6V2.4H17V17.6H19.3ZM9.2 16.5C9.9 16.8 10.8 16.7 11.5 16.2L8 14.7C8 15.5 8.5 16.2 9.2 16.5ZM15.2 16.1V4.3L5.3 8.3V11.7L15.2 16.1ZM3.5 12.9V7.1H1.8V12.9H3.5ZM19.3 0.699998C20.3 0.699998 21 1.5 21.1 2.4V17.6C21.1 18.6 20.3 19.4 19.3 19.4H17C16.2 19.4 15.4 18.8 15.3 18L13.1 17C13.1 17.1 13 17.3 12.9 17.4C12.1 18.1 11.1 18.5 10.1 18.5C9.5 18.5 9 18.4 8.4 18.1C7 17.4 6.1 16 6.2 14.4C6.2 14.3 6.2 14.1 6.3 14L5.2 13.5C5 14.2 4.3 14.7 3.6 14.7H1.8C0.8 14.7 0 13.9 0 12.9V7.1C0 6.1 0.8 5.3 1.8 5.3H3.6C4.3 5.3 5 5.8 5.2 6.5L15.2 2.5V2.4C15.2 1.4 16 0.599998 17 0.599998L19.3 0.699998ZM22.8 6.8C22.4 6.8 22.1 6.6 22 6.2C21.9 5.8 22 5.4 22.4 5.2L24.2 4C24.5 3.8 24.8 3.8 25.1 3.9C25.4 4 25.6 4.3 25.6 4.7C25.6 5 25.4 5.3 25.2 5.5L23.4 6.7C23.1 6.7 22.9 6.8 22.8 6.8ZM25 13.9C25.4 14.2 25.5 14.7 25.2 15.1C24.9 15.5 24.4 15.6 24 15.3L22.2 14.1C21.8 13.8 21.7 13.3 22 12.9C22.3 12.5 22.8 12.4 23.2 12.7L25 13.9ZM25.1 8.8C25.6 8.8 26 9.2 26 9.7C26 10.2 25.6 10.6 25.1 10.6H23.3C22.8 10.6 22.4 10.2 22.4 9.7C22.4 9.2 22.8 8.8 23.3 8.8H25.1Z" fill="#2B2B2B"/>
</svg>
