<svg width="28" height="27" viewBox="0 0 28 27" fill="none" xmlns="http://www.w3.org/2000/svg">
<path d="M16 14L26.7 3.10001C27.2 2.60001 27.1 1.80001 26.7 1.40001C26.2 0.900012 25.4 0.900012 25 1.40001L14.2 12.3L3.2 1.40001C2.9 1.10001 2.4 0.900012 1.9 1.00001C1.5 1.20001 1.1 1.50001 0.999996 2.00001C0.899996 2.40001 0.999996 2.90001 1.4 3.20001L12.5 14L1.4 24.9C0.899996 25.4 0.899996 26.2 1.4 26.6C1.9 27.1 2.6 27.1 3.1 26.6L14.2 15.7L24.8 26.5C25.3 27 26.1 27 26.5 26.5C27 26 27 25.3 26.5 24.8L16 14Z" fill="#2B2B2B"/>
</svg>
