<svg width="40" height="40" viewBox="0 0 40 40" fill="none" xmlns="http://www.w3.org/2000/svg">
<g clip-path="url(#clip0)">
<path d="M37.4 4.5H2.79998C1.29998 4.5 0.0999756 5.7 0.0999756 7.2V32.7C0.0999756 34.2 1.29998 35.4 2.79998 35.4H37.3C38.8 35.4 40 34.2 40 32.7V7.3C40.1 5.8 38.9 4.5 37.4 4.5ZM37.4 30.8L30.2 23.6C29.7 23.1 28.8 23.1 28.3 23.6C27.8 24.1 27.8 25 28.3 25.5L35.5 32.7H4.79998L12 25.5C12.5 25 12.5 24.1 12 23.6C11.5 23.1 10.6 23.1 10.1 23.6L2.89998 30.8V13.3L19.3 25.6C19.8 26 20.5 26 20.9 25.6L37.4 13.3V30.8ZM37.4 7.3V9.9L20 22.8L2.79998 9.8V7.2H37.4V7.3Z" fill="black"/>
<mask id="mask0" mask-type="alpha" maskUnits="userSpaceOnUse" x="0" y="4" width="41" height="32">
<path d="M37.4 4.5H2.79998C1.29998 4.5 0.0999756 5.7 0.0999756 7.2V32.7C0.0999756 34.2 1.29998 35.4 2.79998 35.4H37.3C38.8 35.4 40 34.2 40 32.7V7.3C40.1 5.8 38.9 4.5 37.4 4.5ZM37.4 30.8L30.2 23.6C29.7 23.1 28.8 23.1 28.3 23.6C27.8 24.1 27.8 25 28.3 25.5L35.5 32.7H4.79998L12 25.5C12.5 25 12.5 24.1 12 23.6C11.5 23.1 10.6 23.1 10.1 23.6L2.89998 30.8V13.3L19.3 25.6C19.8 26 20.5 26 20.9 25.6L37.4 13.3V30.8ZM37.4 7.3V9.9L20 22.8L2.79998 9.8V7.2H37.4V7.3Z" fill="white"/>
</mask>
<g mask="url(#mask0)">
</g>
</g>
<defs>
<clipPath id="clip0">
<rect width="40" height="40" fill="white"/>
</clipPath>
</defs>
</svg>
