<svg id="icon_error" viewBox="0 0 42 42" width="100%" height="100%">
      <path d="M18.4,4.1c0.5-1,1.5-1.6,2.6-1.6s2.1,0.6,2.6,1.6l17,31c0.5,0.9,0.5,2.1-0.1,3c-0.5,0.9-1.5,1.5-2.6,1.5H4    c-1.1,0-2-0.6-2.6-1.5s-0.6-2-0.1-3L18.4,4.1z M38,36.5l-17-31l-17,31H38z M21.2,12.7c0.8,0,1.4,0.6,1.4,1.4v13.3    c0,0.8-0.6,1.4-1.4,1.4s-1.4-0.6-1.4-1.4V14.2C19.7,13.4,20.4,12.7,21.2,12.7z M21.2,34.2c-0.8,0-1.4-0.6-1.4-1.4    c0-0.8,0.6-1.4,1.4-1.4s1.4,0.6,1.4,1.4C22.6,33.5,21.9,34.2,21.2,34.2z"></path>
    </svg>