<svg width="40" height="38" viewBox="0 0 40 38" fill="none" xmlns="http://www.w3.org/2000/svg">
<path d="M38.9738 15.275C30.3738 7.975 21.7738 0.675 21.7738 0.675C20.7738 -0.225 19.2738 -0.225 18.1738 0.675L0.973836 15.275C0.0738356 15.975 -0.226165 17.175 0.173835 18.275C0.573835 19.375 1.47384 20.075 2.67384 20.175V34.775C2.67384 36.275 3.87384 37.475 5.37384 37.475C5.37384 37.475 9.67384 37.475 14.4738 37.475C15.9738 37.475 17.1738 36.275 17.1738 34.775C17.1738 30.275 17.1738 26.575 17.1738 26.575H22.6738C22.6738 26.575 22.6738 30.375 22.6738 34.775C22.6738 36.275 23.8738 37.475 25.3738 37.475C30.1738 37.475 34.4738 37.475 34.4738 37.475C35.9738 37.475 37.1738 36.275 37.1738 34.775V20.175C38.2738 20.075 39.2738 19.375 39.6738 18.275C40.1738 17.275 39.8738 16.075 38.9738 15.275C39.0738 15.375 38.9738 15.275 38.9738 15.275ZM34.5738 17.375V34.775H25.3738V26.575C25.3738 25.075 24.1738 23.875 22.6738 23.875H17.1738C15.6738 23.875 14.4738 25.075 14.4738 26.575V34.775H5.27384V17.375H2.67384L19.9738 2.775L37.2738 17.375H34.5738Z" fill="black"/>
</svg>
