<svg width="40" height="40" viewBox="0 0 40 40" fill="none" xmlns="http://www.w3.org/2000/svg">
<path d="M20.5 26.3C21.3 26.3 22 27 22 27.8C22 28.6 21.3 29.3 20.5 29.3C19.7 29.3 19 28.6 19 27.8C19 27 19.7 26.3 20.5 26.3ZM20.5 32.2C22.9 32.2 24.9 30.2 24.9 27.8C24.9 25.4 22.9 23.4 20.5 23.4C18.1 23.4 16.1 25.4 16.1 27.8C16.1 30.2 18.1 32.2 20.5 32.2ZM33.7 37.1H6.29999V17.6H33.6V37.1H33.7ZM12.2 10.7C12.2 6.4 15.7 2.9 20 2.9C24.3 2.9 27.8 6.4 27.8 10.7V14.6H12.2V10.7ZM33.7 14.6H30.8V10.7C30.7 4.8 25.9 0 20 0C14.1 0 9.29999 4.8 9.29999 10.7V14.6H6.29999C4.69999 14.6 3.39999 15.9 3.39999 17.5V37C3.39999 38.6 4.69999 39.9 6.29999 39.9H33.6C35.2 39.9 36.5 38.6 36.5 37V17.6C36.6 15.9 35.3 14.6 33.7 14.6Z" fill="black"/>
</svg>
