<svg width="25" height="25" viewBox="0 0 25 25" fill="none" xmlns="http://www.w3.org/2000/svg">
<path d="M12.9 8.70003C15.3 8.70003 17.3 10.7 17.3 13.1C17.3 15.5 15.3 17.5 12.9 17.5C10.5 17.5 8.50002 15.5 8.50002 13.1C8.50002 10.7 10.5 8.70003 12.9 8.70003ZM12.9 15.8C14.4 15.8 15.7 14.5 15.7 13C15.7 11.5 14.4 10.2 12.9 10.2C11.4 10.2 10.1 11.5 10.1 13C10.2 14.6 11.4 15.8 12.9 15.8ZM23.4 9.70003C23.9 9.70003 24.2 9.90003 24.5 10.2C24.8 10.5 25 10.9 25 11.3V14.6C25 15.5 24.3 16.2 23.4 16.2H22.8C22.7 16.7 22.5 17.1 22.2 17.6L22.5 17.9C23.2 18.6 23.2 19.6 22.5 20.2L20.2 22.5C19.5 23.2 18.5 23.2 17.9 22.5L17.6 22.2C17.1 22.4 16.7 22.5 16.2 22.8V23.4C16.2 24.3 15.5 25 14.6 25H11.3C10.4 25 9.70003 24.3 9.70003 23.4V22.8C9.20003 22.7 8.80002 22.5 8.30002 22.2L8.00002 22.6C7.30002 23.3 6.30002 23.3 5.70002 22.6L3.40002 20.3C2.70002 19.6 2.70002 18.6 3.40002 18L3.70002 17.7C3.50002 17.2 3.40003 16.8 3.10003 16.3H2.50002C1.60002 16.3 0.900024 15.6 0.900024 14.7V11.4C0.900024 10.5 1.60002 9.80002 2.50002 9.80002H3.10003C3.20003 9.30002 3.40002 8.90002 3.70002 8.40002L3.40002 8.00002C2.70002 7.30002 2.70002 6.30002 3.40002 5.70002L5.70002 3.40002C6.40002 2.70002 7.40002 2.70002 8.00002 3.40002L8.30002 3.70002C8.80002 3.50002 9.20003 3.40003 9.70003 3.10003V2.50002C9.70003 1.60002 10.4 0.900024 11.3 0.900024H14.6C15.5 0.900024 16.2 1.60002 16.2 2.50002V3.10003C16.7 3.20003 17.1 3.40002 17.6 3.70002L17.9 3.40002C18.6 2.70002 19.6 2.70002 20.2 3.40002L22.5 5.70002C23.2 6.40002 23.2 7.40002 22.5 8.00002L22.2 8.30002C22.4 8.80002 22.5 9.20003 22.8 9.70003H23.4ZM23.4 14.7V11.4H21.6C21.4 10.3 20.9 9.10003 20.2 8.10003L21.5 6.80002L19.2 4.50002L17.9 5.80002C16.9 5.10002 15.8 4.70002 14.6 4.40002V2.60003H11.3V4.40002C10.2 4.60002 9.00002 5.10002 8.00002 5.80002L6.70002 4.50002L4.40002 6.80002L5.70002 8.10003C5.00002 9.10003 4.60002 10.2 4.30002 11.4H2.50002V14.7H4.30002C4.50002 15.8 5.00002 17 5.70002 18L4.40002 19.3L6.70002 21.6L8.00002 20.3C9.00002 21 10.1 21.4 11.3 21.7V23.5H14.6V21.7C15.7 21.5 16.9 21 17.9 20.3L19.2 21.6L21.5 19.3L20.2 18C20.9 17 21.3 15.9 21.6 14.7H23.4Z" fill="#2B2B2B"/>
</svg>
