<svg width="24" height="26" viewBox="0 0 24 26" fill="none" xmlns="http://www.w3.org/2000/svg">
<path d="M19.4 24.2H17V14C17 13.5 16.6 13.1 16.1 13.1C15.6 13.1 15.2 13.5 15.2 14V24.2H12.2V10.5C12.2 10 11.8 9.6 11.3 9.6C10.8 9.6 10.4 10 10.4 10.5V24.2H7.4V14C7.4 13.5 7 13.1 6.5 13.1C6 13.1 5.6 13.5 5.6 14V24.2H3.2V5.7H19.3L19.4 24.2ZM11.6 1.8C13.2 1.8 14.6 2.4 15.3 3.9H7.8C8.6 2.4 10 1.8 11.6 1.8ZM22.4 3.9H17.3C16.3 1.5 14.1 0 11.6 0C9.1 0 6.9 1.5 6 3.9H0.900001C0.400001 3.9 0 4.3 0 4.8C0 5.3 0.400001 5.7 0.900001 5.7H1.5V24.2C1.5 25.2 2.3 26 3.3 26H19.4C20.4 26 21.2 25.2 21.2 24.2V5.7H22.4C22.9 5.7 23.3 5.3 23.3 4.8C23.3 4.3 22.9 3.9 22.4 3.9Z" fill="#2B2B2B"/>
</svg>
