<svg width="24" height="26" viewBox="0 0 24 26" fill="none" xmlns="http://www.w3.org/2000/svg">
<path d="M12 10.4C14.2 10.4 15.9 8.7 15.9 6.5C15.9 4.3 14.2 2.6 12 2.6C9.79999 2.6 8.09999 4.3 8.09999 6.5C8.09999 8.7 9.79999 10.4 12 10.4ZM12 13C8.39999 13 5.49999 10.1 5.49999 6.5C5.49999 2.9 8.39999 0 12 0C15.6 0 18.5 2.9 18.5 6.5C18.5 10.1 15.6 13 12 13ZM23.7 24.7C23.7 25.4 23.1 26 22.4 26C21.7 26 21.1 25.4 21.1 24.7V22.1C21.1 19.9 19.4 18.2 17.2 18.2H6.79999C4.59999 18.2 2.89999 19.9 2.89999 22.1V24.7C2.89999 25.4 2.29999 26 1.59999 26C0.899988 26 0.299988 25.4 0.299988 24.7V22.1C0.299988 18.5 3.19999 15.6 6.79999 15.6H17.2C20.8 15.6 23.7 18.5 23.7 22.1V24.7Z" fill="#2B2B2B"/>
</svg>
