<svg width="26" height="20" viewBox="0 0 26 20" fill="none" xmlns="http://www.w3.org/2000/svg">
<path d="M13 13C14.6 13 16 11.7 16 10C16 8.4 14.7 7 13 7C11.4 7 10 8.3 10 10C10 11.6 11.4 13 13 13ZM13 5.3C15.6 5.3 17.7 7.4 17.7 10C17.7 12.6 15.6 14.7 13 14.7C10.4 14.7 8.3 12.6 8.3 10C8.3 7.4 10.4 5.3 13 5.3ZM13 17.7C19.5 17.7 24.2 10 24.2 10C24.2 10 19.5 2.3 13 2.3C6.5 2.3 1.8 10 1.8 10C1.8 10 6.5 17.7 13 17.7ZM25.7 9.1C26.1 9.7 26.1 10.4 25.7 11C25.5 11.3 20.4 19.5 13 19.5C5.6 19.5 0.5 11.3 0.3 11C-0.1 10.4 -0.1 9.7 0.3 9.1C0.5 8.8 5.6 0.599998 13 0.599998C20.4 0.499998 25.5 8.7 25.7 9.1Z" fill="#2B2B2B"/>
</svg>
